<?xml version="1.0" encoding="UTF-8" standalone="no"?>
<!-- Created with Inkscape (http://www.inkscape.org/) -->

<svg
   width="300mm"
   height="300mm"
   viewBox="0 0 300 299.99999"
   version="1.1"
   id="svg1"
   xml:space="preserve"
   inkscape:version="1.4 (86a8ad7, 2024-10-11)"
   sodipodi:docname="ttgx_blocks.svg"
   inkscape:export-filename="ttgx_blocks.png"
   inkscape:export-xdpi="96"
   inkscape:export-ydpi="96"
   xmlns:inkscape="http://www.inkscape.org/namespaces/inkscape"
   xmlns:sodipodi="http://sodipodi.sourceforge.net/DTD/sodipodi-0.dtd"
   xmlns:xlink="http://www.w3.org/1999/xlink"
   xmlns="http://www.w3.org/2000/svg"
   xmlns:svg="http://www.w3.org/2000/svg"><sodipodi:namedview
     id="namedview1"
     pagecolor="#ffffff"
     bordercolor="#000000"
     borderopacity="0.25"
     inkscape:showpageshadow="2"
     inkscape:pageopacity="0.0"
     inkscape:pagecheckerboard="0"
     inkscape:deskcolor="#d1d1d1"
     inkscape:document-units="mm"
     inkscape:zoom="0.35355339"
     inkscape:cx="497.80317"
     inkscape:cy="284.25693"
     inkscape:window-width="1920"
     inkscape:window-height="1017"
     inkscape:window-x="-8"
     inkscape:window-y="-8"
     inkscape:window-maximized="1"
     inkscape:current-layer="layer1"
     showgrid="false"><inkscape:page
       x="0"
       y="0"
       width="300"
       height="300"
       id="page4"
       margin="16.4 45.77 0 0"
       bleed="0" /></sodipodi:namedview><defs
     id="defs1"><linearGradient
       id="linearGradient8"
       inkscape:collect="always"><stop
         style="stop-color:#ffffff;stop-opacity:1;"
         offset="0"
         id="stop8" /><stop
         style="stop-color:#ffffff;stop-opacity:0;"
         offset="1"
         id="stop9" /></linearGradient><clipPath
       clipPathUnits="userSpaceOnUse"
       id="clipPath5"><ellipse
         style="fill:#312065;fill-opacity:0;stroke-width:2.59888;paint-order:stroke markers fill"
         id="ellipse5"
         cx="87.885353"
         cy="116.37353"
         rx="48.336285"
         ry="48.102257"
         transform="matrix(0.99956187,-0.02959836,-0.03515994,0.9993817,0,0)" /></clipPath><mask
       maskUnits="userSpaceOnUse"
       id="mask10"><rect
         style="fill:url(#linearGradient10);fill-opacity:1;fill-rule:evenodd;stroke-width:0.267814"
         id="rect10"
         width="218.51956"
         height="220.39046"
         x="0.56126404"
         y="-213.46817"
         transform="rotate(90)" /></mask><linearGradient
       inkscape:collect="always"
       xlink:href="#linearGradient8"
       id="linearGradient10"
       gradientUnits="userSpaceOnUse"
       gradientTransform="translate(6.5480999,-213.09399)"
       x1="-5.9868374"
       y1="109.82105"
       x2="212.53271"
       y2="109.82105" /></defs><circle
     style="display:inline;fill:#000000;stroke:none;stroke-width:15.576;paint-order:stroke markers fill"
     id="path2"
     cx="150"
     cy="150"
     r="150" /><g
     inkscape:label="Layer 1"
     inkscape:groupmode="layer"
     id="layer1"
     transform="translate(-92.075)"><g
       id="g8"
       transform="matrix(6.6065418,0,0,6.6065418,209.33105,-440.17178)"
       style="display:inline"><path
         style="display:inline;fill:#fbfbfb;fill-opacity:1"
         d="m 2.4354663,105.24213 c 2.14777,-0.37557 3.7838454,-0.81175 4.0797154,-0.96927 1.12134,-0.597 1.18223,-0.91964 1.19098,-6.310507 0.008,-4.76852 0.05888,-5.311961 -0.4047699,-5.731531 -0.27723,-0.25089 -1.9021055,-1.290809 -3.9437355,-2.421969 l -3.71204998,-2.05664 -5.57347002,0.9261 c -3.0654086,0.50935 -5.3010943,1.00109 -5.3010943,1.09274 0,0.0917 1.4585197,0.94802 3.2411484,1.90303 2.0573696,1.1022 3.3587796,1.96826 3.5632196,2.37125 0.22086,0.43537 0.2290717,2.24413 0.2243517,5.756234 -0.006,4.471063 0.1415283,5.184983 0.5373783,5.622393 0.60946,0.67345 1.3769963,0.64377 6.0983263,-0.18183 z m -4.3581,-1.48594 c -0.38221,-0.38221 -0.44457,-7.805307 -0.0705,-8.396357 0.25667,-0.40559 6.72625,-1.65421 7.34361,-1.41731 0.19038,0.073 0.34614,0.52879 0.34614,1.01273 0,0.94339 -0.0924,1.00386 -1.98437,1.29908 -0.58208,0.0908 -1.68341,0.28826 -2.4474,0.43874 l -1.38905998,0.2736 v 2.267894 2.267893 l 1.61000998,-0.16828 c 1.93856,-0.20262 2.09416,-0.28534 2.09416,-1.11334 0,-0.577103 -0.11266,-0.645853 -1.05834,-0.645853 -0.95526,0 -1.05833,-0.065 -1.05833,-0.668 0,-0.78703 0.539,-1.048064 2.7292,-1.321704 l 1.50413,-0.18793 v 2.405634 c 0,2.936023 -0.0339,2.967743 -3.83645,3.591743 -1.45520998,0.2388 -2.83002998,0.48943 -3.05516,0.55696 -0.22512,0.0675 -0.55254,-0.0204 -0.7276,-0.1955 z m 18.4849027,-0.98074 c 3.82849,-0.69614 3.283273,-0.69477 3.984388,-1.47945 0,0 0.582211,-0.8376 0.577488,-0.9356 0.08723,-1.54822 0,-4.903267 0,-4.903267 0,-5.85765 0.765638,-4.691134 -4.422319,-8.11441 l -3.100399,-2.0458 -5.2860803,0.92132 c -2.9073504,0.50673 -5.4003204,0.92133 -5.5399304,0.92133 -0.79446,0 0.0728,0.67415 2.59043,2.01359 1.5643504,0.83228 3.1717004,1.73983 3.5718804,2.01679 l 0.5005817,0.50357 v 5.38674 5.386727 l 0.6971406,0.54837 c 0.890188,0.70022 1.47688,0.68015 6.42682,-0.21991 z m -4.251102,-1.74608 c 0,-0.22428 0.46936,-1.341303 1.04302,-2.482253 l 1.04302,-2.074474 -1.23291,-1.77105 c -1.36789,-1.96496 -1.30299,-2.25867 0.50077,-2.26631 0.8308,-0.003 1.0527,0.14051 1.68235,1.09199 l 0.72533,1.09604 0.54112,-0.8976 c 0.29762,-0.49368 0.70052,-1.15993 0.89533,-1.48055 0.3344,-0.55034 2.04991,-1.12084 2.37946,-0.7913 0.0795,0.0795 -0.455933,1.135545 -1.115724,2.34686 l -1.19962,2.20239 1.1719,1.85208 c 1.065473,1.683882 1.192124,1.882124 0.788224,2.182827 -0.90496,0.67371 -1.87397,0.40496 -2.62347,-0.727613 -0.3852,-0.58208 -0.78326,-1.05833 -0.88457,-1.05833 -0.10131,0 -0.46216,0.59347 -0.8019,1.31883 -0.33974,0.725363 -0.80658,1.369143 -1.03742,1.430623 -1.58365,0.42178 -1.87491,0.4261 -1.87491,0.0278 z"
         id="path1-5-4"
         sodipodi:nodetypes="sscsscssssssssssssscccssssscssssssscsscsssscccsscscssscsssscsssssscc"
         inkscape:label="GX" /><rect
         style="display:none;fill:#ff9b00;fill-opacity:1;fill-rule:evenodd;stroke-width:0.211295"
         id="rect4-9-5"
         width="7.3243227"
         height="166.43605"
         x="210.41124"
         y="-279.63052"
         transform="matrix(0.05046205,0.14270592,-0.14879036,0.02779979,-31.68542,66.626655)" /><path
         style="display:none;fill:#000000;fill-opacity:1;stroke:none;stroke-width:2.5;paint-order:stroke markers fill"
         d="m 182.43883,180.35348 163.51549,-30.589 -0.14031,4.44336 z"
         id="path5"
         transform="matrix(0.15136512,0,0,0.15136512,-31.68542,66.626655)" /><path
         style="display:inline;fill:#7d7d7d;fill-opacity:1;stroke:none;stroke-width:1.90634;paint-order:stroke markers fill"
         d="M -3.1452602,93.745966 6.9498712,91.866085 5.4778233,91.024813 5.5272603,87.709416 6.2471259,88.541691 10.572374,91.19147 20.003143,89.428714 16.076631,86.86732 5.3555123,85.510449 -10.554154,89.511453 Z"
         id="path4"
         sodipodi:nodetypes="ccccccccccc" /><path
         style="fill:#000000;stroke:none;stroke-width:1.90634;paint-order:stroke markers fill"
         d="m -11.975108,76.660134 1.475331,11.651309 8.1036735,4.423175 8.9719028,-1.770207 1.744083,-11.505064 -8.35042103,-5.828497 z"
         id="path3"
         sodipodi:nodetypes="ccccccc" /><path
         style="display:inline;fill:#000000;stroke:none;stroke-width:1.90634;paint-order:stroke markers fill"
         d="m 3.4298054,85.350594 7.4654346,4.815415 0.533679,-0.156073 c 0,0 9.022352,-1.418388 9.5548,-2.029058 0.641926,-0.736227 -7.061921,-16.869273 -7.061921,-16.869273 z"
         id="path3-2"
         sodipodi:nodetypes="cccscc" /><path
         id="path1-6-1"
         style="display:inline;fill:#fbfbfb;fill-opacity:1"
         d="m 2.3535538,92.30097 c 3.708429,-0.67716 3.838369,-0.71958 4.7685489,-1.55697 0.57941,-0.52161 0.59531,-0.67639 0.59531,-5.7935 0,-6.25703 0.39242,-5.53911 -4.5817189,-8.3822 L -0.25540633,74.63003 -4.1403563,75.318 c -2.13672,0.37839 -4.688619,0.8208 -5.6708787,0.98314 -0.98227,0.16234 -1.78594,0.37306 -1.78594,0.46827 0,0.0952 1.29622,0.86785 2.8804797,1.71699 1.584269,0.84914 3.251149,1.7693 3.704169,2.0448 l 0.82368,0.50092 0.004,4.83253 c 0.002,2.6579 0.0678,5.07066 0.1462,5.3617 0.17132,0.63582 1.62518,1.68161 2.36373,1.70028 0.29105,0.007 2.10402999,-0.27419 4.0288601,-0.62566 z M 0.76264379,90.13651 c -0.10394,-0.10394 -0.18891,-1.56812 -0.18882,-3.25373 l 1.6e-4,-3.06476 -1.32308012,0.0917 -1.32307997,0.0917 v -0.95157 c 0,-0.52337 0.0298,-0.95237 0.0661,-0.95334 0.0364,-9.6e-4 1.43536997,-0.2383 3.1088601,-0.52741 4.348239,-0.7512 4.497919,-0.73816 4.497919,0.39184 0,0.76939 -0.10888,0.9436 -0.661459,1.05833 -0.3638,0.0755 -0.95556,0.19824 -1.31504,0.27269 -0.64887,0.13437 -0.65411,0.15961 -0.7276,3.50572 l -0.074,3.37038 -0.9355,0.0787 c -0.51453,0.0433 -1.02054001,-0.006 -1.12448001,-0.11025 z"
         sodipodi:nodetypes="cssscssssscccccccscccsssscsccccc"
         inkscape:label="TT" /><path
         id="path1-6-1-1"
         style="display:inline;fill:#fbfbfb;fill-opacity:1"
         d="m 15.907268,89.754132 c 3.708429,-0.67716 3.671838,-0.71958 4.602018,-1.55697 0.57941,-0.52161 0.59531,-0.67639 0.59531,-5.7935 0,-6.25703 0.392411,-5.539094 -4.581719,-8.3822 l -3.3911,-1.93828 -3.718419,0.68798 c -2.133752,0.394786 -4.68862,0.8208 -5.67088,0.98314 -0.98227,0.16234 -1.78594,0.37306 -1.78594,0.46827 0,0.0952 1.29622,0.86785 2.88048,1.71699 1.58427,0.84914 3.25115,1.7693 3.70417,2.0448 l 0.82368,0.50092 0.004,4.83253 c 0.002,2.6579 0.0678,5.07066 0.1462,5.3617 0.674124,1.180955 1.703055,1.851522 2.363729,1.70028 0.29105,0.007 2.104031,-0.27419 4.028861,-0.62566 z m -1.59091,-2.16446 c -0.10394,-0.10394 -0.18891,-1.56812 -0.18882,-3.25373 l 1.6e-4,-3.06476 -1.32308,0.0917 -1.323081,0.0917 v -0.95157 c 0,-0.52337 0.0298,-0.95237 0.0661,-0.95334 0.0364,-9.6e-4 1.435371,-0.2383 3.108861,-0.52741 4.348239,-0.7512 4.497919,-0.73816 4.497919,0.39184 0,0.76939 -0.10888,0.9436 -0.661459,1.05833 -0.3638,0.0755 -0.95556,0.19824 -1.31504,0.27269 -0.64887,0.13437 -0.65411,0.15961 -0.7276,3.50572 l -0.074,3.37038 -0.9355,0.0787 c -0.51453,0.0433 -1.02054,-0.006 -1.12448,-0.11025 z"
         sodipodi:nodetypes="cssscssssscccccccscccsssscsccccc"
         inkscape:label="TT" /></g></g><style
     type="text/css"
     id="style1">
	.st0{fill:#000000;}
</style></svg>
